<mxfile host="65bd71144e">
    <diagram name="Chapter_1_Alexander" id="vyDlKF1bLINm5wJuJQlG">
        <mxGraphModel dx="931" dy="722" grid="1" gridSize="10" guides="1" tooltips="1" connect="1" arrows="1" fold="1" page="1" pageScale="1" pageWidth="827" pageHeight="1169" math="0" shadow="0">
            <root>
                <mxCell id="0"/>
                <mxCell id="1" parent="0"/>
                <mxCell id="cvKSAtzWg2OH9WG14mFE-227" value="" style="rounded=0;whiteSpace=wrap;html=1;fillColor=#FFFFFF;strokeColor=#82b366;" parent="1" vertex="1">
                    <mxGeometry x="40" y="40" width="640" height="990" as="geometry"/>
                </mxCell>
                <mxCell id="7pUMp-ePgJumYKTbxFki-1" value="" style="rounded=0;whiteSpace=wrap;html=1;fillColor=#d5e8d4;strokeColor=#82b366;opacity=70;" parent="1" vertex="1">
                    <mxGeometry x="40" y="40" width="640" height="990" as="geometry"/>
                </mxCell>
                <mxCell id="7pUMp-ePgJumYKTbxFki-2" value="&lt;b&gt;&lt;font style=&quot;font-size: 14px;&quot; color=&quot;#000000&quot;&gt;General&lt;/font&gt;&lt;/b&gt;" style="rounded=1;whiteSpace=wrap;html=1;fillColor=#CCCCCC;strokeColor=#000000;arcSize=0;" parent="1" vertex="1">
                    <mxGeometry x="70" y="70" width="280" height="30" as="geometry"/>
                </mxCell>
                <mxCell id="7pUMp-ePgJumYKTbxFki-8" value="&lt;b&gt;Attributes&lt;/b&gt;" style="rounded=1;whiteSpace=wrap;html=1;fillColor=#CCCCCC;strokeColor=#000000;fontColor=#000000;arcSize=0;" parent="1" vertex="1">
                    <mxGeometry x="80" y="430.5" width="560" height="30" as="geometry"/>
                </mxCell>
                <mxCell id="cvKSAtzWg2OH9WG14mFE-49" value="&lt;b&gt;&lt;font color=&quot;#000000&quot;&gt;Divinity Line&lt;/font&gt;&lt;/b&gt;" style="rounded=1;whiteSpace=wrap;html=1;fillColor=#CCCCCC;strokeColor=#000000;arcSize=0;" parent="1" vertex="1">
                    <mxGeometry x="370" y="70" width="280" height="30" as="geometry"/>
                </mxCell>
                <mxCell id="cvKSAtzWg2OH9WG14mFE-122" value="&lt;font style=&quot;font-size: 14px;&quot; color=&quot;#000000&quot;&gt;Alexander K. Leonandra&lt;/font&gt;" style="shape=partialRectangle;whiteSpace=wrap;html=1;bottom=1;right=1;left=1;top=0;fillColor=#FFFFFF;routingCenterX=-0.5;shadow=0;comic=0;strokeColor=#000000;fontSize=17;" parent="1" vertex="1">
                    <mxGeometry x="70" y="129" width="280" height="30" as="geometry"/>
                </mxCell>
                <mxCell id="cvKSAtzWg2OH9WG14mFE-123" value="&lt;font size=&quot;1&quot; style=&quot;&quot; color=&quot;#000000&quot;&gt;&lt;b style=&quot;font-size: 12px;&quot;&gt;Name&lt;/b&gt;&lt;/font&gt;" style="shape=partialRectangle;whiteSpace=wrap;html=1;bottom=1;right=1;left=1;top=0;fillColor=#FFFFFF;routingCenterX=-0.5;shadow=0;comic=0;strokeColor=#000000;fontSize=17;direction=west;" parent="1" vertex="1">
                    <mxGeometry x="70" y="100" width="280" height="30" as="geometry"/>
                </mxCell>
                <mxCell id="cvKSAtzWg2OH9WG14mFE-124" value="" style="line;strokeWidth=1;html=1;shadow=0;comic=0;strokeColor=#000000;fontSize=17;fillColor=#FFFFFF;" parent="1" vertex="1">
                    <mxGeometry x="120" y="130" width="190" height="1" as="geometry"/>
                </mxCell>
                <mxCell id="cvKSAtzWg2OH9WG14mFE-125" value="&lt;font style=&quot;font-size: 14px;&quot; color=&quot;#000000&quot;&gt;-&lt;/font&gt;" style="shape=partialRectangle;whiteSpace=wrap;html=1;bottom=1;right=1;left=1;top=0;fillColor=#FFFFFF;routingCenterX=-0.5;shadow=0;comic=0;strokeColor=#000000;fontSize=17;" parent="1" vertex="1">
                    <mxGeometry x="370" y="129" width="280" height="30" as="geometry"/>
                </mxCell>
                <mxCell id="cvKSAtzWg2OH9WG14mFE-126" value="&lt;font size=&quot;1&quot; style=&quot;&quot; color=&quot;#000000&quot;&gt;&lt;b style=&quot;font-size: 12px;&quot;&gt;Locked&lt;/b&gt;&lt;/font&gt;" style="shape=partialRectangle;whiteSpace=wrap;html=1;bottom=1;right=1;left=1;top=0;fillColor=#FFFFFF;routingCenterX=-0.5;shadow=0;comic=0;strokeColor=#000000;fontSize=17;direction=west;" parent="1" vertex="1">
                    <mxGeometry x="370" y="100" width="280" height="30" as="geometry"/>
                </mxCell>
                <mxCell id="cvKSAtzWg2OH9WG14mFE-127" value="" style="line;strokeWidth=1;html=1;shadow=0;comic=0;strokeColor=#000000;fontSize=17;fillColor=#FFFFFF;" parent="1" vertex="1">
                    <mxGeometry x="440" y="130" width="140" height="1" as="geometry"/>
                </mxCell>
                <mxCell id="cvKSAtzWg2OH9WG14mFE-128" value="&lt;font style=&quot;font-size: 14px;&quot; color=&quot;#000000&quot;&gt;7&lt;/font&gt;" style="shape=partialRectangle;whiteSpace=wrap;html=1;bottom=1;right=1;left=1;top=0;fillColor=#FFFFFF;routingCenterX=-0.5;shadow=0;comic=0;strokeColor=#000000;fontSize=17;" parent="1" vertex="1">
                    <mxGeometry x="70" y="188" width="280" height="30" as="geometry"/>
                </mxCell>
                <mxCell id="cvKSAtzWg2OH9WG14mFE-129" value="&lt;font size=&quot;1&quot; style=&quot;&quot; color=&quot;#000000&quot;&gt;&lt;b style=&quot;font-size: 12px;&quot;&gt;Level&lt;/b&gt;&lt;/font&gt;" style="shape=partialRectangle;whiteSpace=wrap;html=1;bottom=1;right=1;left=1;top=0;fillColor=#FFFFFF;routingCenterX=-0.5;shadow=0;comic=0;strokeColor=#000000;fontSize=17;direction=west;" parent="1" vertex="1">
                    <mxGeometry x="70" y="159" width="280" height="30" as="geometry"/>
                </mxCell>
                <mxCell id="cvKSAtzWg2OH9WG14mFE-130" value="" style="line;strokeWidth=1;html=1;shadow=0;comic=0;strokeColor=#000000;fontSize=17;fillColor=#FFFFFF;" parent="1" vertex="1">
                    <mxGeometry x="120" y="189" width="190" height="1" as="geometry"/>
                </mxCell>
                <mxCell id="cvKSAtzWg2OH9WG14mFE-136" value="700" style="shape=partialRectangle;whiteSpace=wrap;html=1;bottom=1;right=1;left=1;top=0;fillColor=#FFFFFF;routingCenterX=-0.5;shadow=0;comic=0;strokeColor=#000000;strokeWidth=1;fontSize=14;fontColor=#000000;" parent="1" vertex="1">
                    <mxGeometry x="210" y="247" width="140" height="30" as="geometry"/>
                </mxCell>
                <mxCell id="cvKSAtzWg2OH9WG14mFE-137" value="635" style="shape=partialRectangle;whiteSpace=wrap;html=1;bottom=1;right=1;left=1;top=0;fillColor=#FFFFFF;routingCenterX=-0.5;shadow=0;comic=0;strokeColor=#000000;strokeWidth=1;fontSize=14;fontColor=#000000;" parent="1" vertex="1">
                    <mxGeometry x="70" y="247" width="140" height="30" as="geometry"/>
                </mxCell>
                <mxCell id="cvKSAtzWg2OH9WG14mFE-133" value="" style="line;strokeWidth=1;html=1;shadow=0;comic=0;strokeColor=#000000;fontSize=17;fillColor=#FFFFFF;" parent="1" vertex="1">
                    <mxGeometry x="120" y="248" width="190" height="1" as="geometry"/>
                </mxCell>
                <mxCell id="cvKSAtzWg2OH9WG14mFE-132" value="&lt;font size=&quot;1&quot; style=&quot;&quot; color=&quot;#000000&quot;&gt;&lt;b style=&quot;font-size: 12px;&quot;&gt;Experience&lt;/b&gt;&lt;/font&gt;" style="shape=partialRectangle;whiteSpace=wrap;html=1;bottom=1;right=1;left=1;top=0;fillColor=#FFFFFF;routingCenterX=-0.5;shadow=0;comic=0;strokeColor=#000000;fontSize=17;direction=west;" parent="1" vertex="1">
                    <mxGeometry x="70" y="218" width="280" height="30" as="geometry"/>
                </mxCell>
                <mxCell id="cvKSAtzWg2OH9WG14mFE-139" value="20" style="shape=partialRectangle;whiteSpace=wrap;html=1;bottom=1;right=1;left=1;top=0;fillColor=#FFFFFF;routingCenterX=-0.5;shadow=0;comic=0;strokeColor=#000000;strokeWidth=1;fontSize=14;fontColor=#000000;" parent="1" vertex="1">
                    <mxGeometry x="210" y="306" width="140" height="30" as="geometry"/>
                </mxCell>
                <mxCell id="cvKSAtzWg2OH9WG14mFE-140" value="20" style="shape=partialRectangle;whiteSpace=wrap;html=1;bottom=1;right=1;left=1;top=0;fillColor=#FFFFFF;routingCenterX=-0.5;shadow=0;comic=0;strokeColor=#000000;strokeWidth=1;fontSize=14;fontColor=#000000;" parent="1" vertex="1">
                    <mxGeometry x="70" y="306" width="140" height="30" as="geometry"/>
                </mxCell>
                <mxCell id="cvKSAtzWg2OH9WG14mFE-141" value="" style="line;strokeWidth=1;html=1;shadow=0;comic=0;strokeColor=#000000;fontSize=17;fillColor=#FFFFFF;" parent="1" vertex="1">
                    <mxGeometry x="120" y="307" width="190" height="1" as="geometry"/>
                </mxCell>
                <mxCell id="cvKSAtzWg2OH9WG14mFE-142" value="&lt;font size=&quot;1&quot; style=&quot;&quot; color=&quot;#000000&quot;&gt;&lt;b style=&quot;font-size: 12px;&quot;&gt;Health Points&lt;/b&gt;&lt;/font&gt;" style="shape=partialRectangle;whiteSpace=wrap;html=1;bottom=1;right=1;left=1;top=0;fillColor=#FFFFFF;routingCenterX=-0.5;shadow=0;comic=0;strokeColor=#000000;fontSize=17;direction=west;" parent="1" vertex="1">
                    <mxGeometry x="70" y="277" width="280" height="30" as="geometry"/>
                </mxCell>
                <mxCell id="cvKSAtzWg2OH9WG14mFE-143" value="220" style="shape=partialRectangle;whiteSpace=wrap;html=1;bottom=1;right=1;left=1;top=0;fillColor=#FFFFFF;routingCenterX=-0.5;shadow=0;comic=0;strokeColor=#000000;strokeWidth=1;fontSize=14;fontColor=#000000;" parent="1" vertex="1">
                    <mxGeometry x="210" y="365" width="140" height="30" as="geometry"/>
                </mxCell>
                <mxCell id="cvKSAtzWg2OH9WG14mFE-144" value="220" style="shape=partialRectangle;whiteSpace=wrap;html=1;bottom=1;right=1;left=1;top=0;fillColor=#FFFFFF;routingCenterX=-0.5;shadow=0;comic=0;strokeColor=#000000;strokeWidth=1;fontSize=14;fontColor=#000000;" parent="1" vertex="1">
                    <mxGeometry x="70" y="365" width="140" height="30" as="geometry"/>
                </mxCell>
                <mxCell id="cvKSAtzWg2OH9WG14mFE-145" value="" style="line;strokeWidth=1;html=1;shadow=0;comic=0;strokeColor=#000000;fontSize=17;fillColor=#FFFFFF;" parent="1" vertex="1">
                    <mxGeometry x="120" y="366" width="190" height="1" as="geometry"/>
                </mxCell>
                <mxCell id="cvKSAtzWg2OH9WG14mFE-146" value="&lt;font size=&quot;1&quot; style=&quot;&quot; color=&quot;#000000&quot;&gt;&lt;b style=&quot;font-size: 12px;&quot;&gt;Mana Points&lt;/b&gt;&lt;/font&gt;" style="shape=partialRectangle;whiteSpace=wrap;html=1;bottom=1;right=1;left=1;top=0;fillColor=#FFFFFF;routingCenterX=-0.5;shadow=0;comic=0;strokeColor=#000000;fontSize=17;direction=west;" parent="1" vertex="1">
                    <mxGeometry x="70" y="336" width="280" height="30" as="geometry"/>
                </mxCell>
                <mxCell id="cvKSAtzWg2OH9WG14mFE-147" value="-" style="shape=partialRectangle;whiteSpace=wrap;html=1;bottom=1;right=1;left=1;top=0;fillColor=#FFFFFF;routingCenterX=-0.5;shadow=0;comic=0;strokeColor=#000000;strokeWidth=1;fontSize=14;fontColor=#000000;" parent="1" vertex="1">
                    <mxGeometry x="600" y="217" width="50" height="30" as="geometry"/>
                </mxCell>
                <mxCell id="cvKSAtzWg2OH9WG14mFE-148" value="Locked" style="shape=partialRectangle;whiteSpace=wrap;html=1;bottom=1;right=1;left=1;top=0;fillColor=#FFFFFF;routingCenterX=-0.5;shadow=0;comic=0;strokeColor=#000000;strokeWidth=1;fontSize=14;fontColor=#000000;" parent="1" vertex="1">
                    <mxGeometry x="370" y="217" width="140" height="30" as="geometry"/>
                </mxCell>
                <mxCell id="cvKSAtzWg2OH9WG14mFE-151" value="-" style="shape=partialRectangle;whiteSpace=wrap;html=1;bottom=1;right=1;left=1;top=0;fillColor=#FFFFFF;routingCenterX=-0.5;shadow=0;comic=0;strokeColor=#000000;strokeWidth=1;fontSize=14;fontColor=#000000;" parent="1" vertex="1">
                    <mxGeometry x="510" y="217" width="90" height="30" as="geometry"/>
                </mxCell>
                <mxCell id="cvKSAtzWg2OH9WG14mFE-150" value="&lt;font size=&quot;1&quot; style=&quot;&quot; color=&quot;#000000&quot;&gt;&lt;b style=&quot;font-size: 12px;&quot;&gt;Mystic Skill 1&lt;/b&gt;&lt;/font&gt;" style="shape=partialRectangle;whiteSpace=wrap;html=1;bottom=1;right=1;left=1;top=0;fillColor=#FFFFFF;routingCenterX=-0.5;shadow=0;comic=0;strokeColor=#000000;fontSize=17;direction=west;" parent="1" vertex="1">
                    <mxGeometry x="370" y="188" width="280" height="30" as="geometry"/>
                </mxCell>
                <mxCell id="cvKSAtzWg2OH9WG14mFE-149" value="" style="line;strokeWidth=1;html=1;shadow=0;comic=0;strokeColor=#000000;fontSize=17;fillColor=#FFFFFF;" parent="1" vertex="1">
                    <mxGeometry x="390" y="218" width="240" height="1" as="geometry"/>
                </mxCell>
                <mxCell id="cvKSAtzWg2OH9WG14mFE-152" value="-" style="shape=partialRectangle;whiteSpace=wrap;html=1;bottom=1;right=1;left=1;top=0;fillColor=#FFFFFF;routingCenterX=-0.5;shadow=0;comic=0;strokeColor=#000000;strokeWidth=1;fontSize=14;fontColor=#000000;" parent="1" vertex="1">
                    <mxGeometry x="600" y="276" width="50" height="30" as="geometry"/>
                </mxCell>
                <mxCell id="cvKSAtzWg2OH9WG14mFE-153" value="Locked" style="shape=partialRectangle;whiteSpace=wrap;html=1;bottom=1;right=1;left=1;top=0;fillColor=#FFFFFF;routingCenterX=-0.5;shadow=0;comic=0;strokeColor=#000000;strokeWidth=1;fontSize=14;fontColor=#000000;" parent="1" vertex="1">
                    <mxGeometry x="370" y="276" width="140" height="30" as="geometry"/>
                </mxCell>
                <mxCell id="cvKSAtzWg2OH9WG14mFE-154" value="-" style="shape=partialRectangle;whiteSpace=wrap;html=1;bottom=1;right=1;left=1;top=0;fillColor=#FFFFFF;routingCenterX=-0.5;shadow=0;comic=0;strokeColor=#000000;strokeWidth=1;fontSize=14;fontColor=#000000;" parent="1" vertex="1">
                    <mxGeometry x="510" y="276" width="90" height="30" as="geometry"/>
                </mxCell>
                <mxCell id="cvKSAtzWg2OH9WG14mFE-155" value="&lt;font size=&quot;1&quot; style=&quot;&quot; color=&quot;#000000&quot;&gt;&lt;b style=&quot;font-size: 12px;&quot;&gt;Mystic Skill 2&lt;/b&gt;&lt;/font&gt;" style="shape=partialRectangle;whiteSpace=wrap;html=1;bottom=1;right=1;left=1;top=0;fillColor=#FFFFFF;routingCenterX=-0.5;shadow=0;comic=0;strokeColor=#000000;fontSize=17;direction=west;" parent="1" vertex="1">
                    <mxGeometry x="370" y="247" width="280" height="30" as="geometry"/>
                </mxCell>
                <mxCell id="cvKSAtzWg2OH9WG14mFE-156" value="" style="line;strokeWidth=1;html=1;shadow=0;comic=0;strokeColor=#000000;fontSize=17;fillColor=#FFFFFF;" parent="1" vertex="1">
                    <mxGeometry x="390" y="277" width="240" height="1" as="geometry"/>
                </mxCell>
                <mxCell id="cvKSAtzWg2OH9WG14mFE-157" value="-" style="shape=partialRectangle;whiteSpace=wrap;html=1;bottom=1;right=1;left=1;top=0;fillColor=#FFFFFF;routingCenterX=-0.5;shadow=0;comic=0;strokeColor=#000000;strokeWidth=1;fontSize=14;fontColor=#000000;" parent="1" vertex="1">
                    <mxGeometry x="600" y="335" width="50" height="30" as="geometry"/>
                </mxCell>
                <mxCell id="cvKSAtzWg2OH9WG14mFE-158" value="Locked" style="shape=partialRectangle;whiteSpace=wrap;html=1;bottom=1;right=1;left=1;top=0;fillColor=#FFFFFF;routingCenterX=-0.5;shadow=0;comic=0;strokeColor=#000000;strokeWidth=1;fontSize=14;fontColor=#000000;" parent="1" vertex="1">
                    <mxGeometry x="370" y="335" width="140" height="30" as="geometry"/>
                </mxCell>
                <mxCell id="cvKSAtzWg2OH9WG14mFE-159" value="-" style="shape=partialRectangle;whiteSpace=wrap;html=1;bottom=1;right=1;left=1;top=0;fillColor=#FFFFFF;routingCenterX=-0.5;shadow=0;comic=0;strokeColor=#000000;strokeWidth=1;fontSize=14;fontColor=#000000;" parent="1" vertex="1">
                    <mxGeometry x="510" y="335" width="90" height="30" as="geometry"/>
                </mxCell>
                <mxCell id="cvKSAtzWg2OH9WG14mFE-160" value="&lt;font size=&quot;1&quot; style=&quot;&quot; color=&quot;#000000&quot;&gt;&lt;b style=&quot;font-size: 12px;&quot;&gt;Mystic Skill 3&lt;/b&gt;&lt;/font&gt;" style="shape=partialRectangle;whiteSpace=wrap;html=1;bottom=1;right=1;left=1;top=0;fillColor=#FFFFFF;routingCenterX=-0.5;shadow=0;comic=0;strokeColor=#000000;fontSize=17;direction=west;" parent="1" vertex="1">
                    <mxGeometry x="370" y="306" width="280" height="30" as="geometry"/>
                </mxCell>
                <mxCell id="cvKSAtzWg2OH9WG14mFE-161" value="" style="line;strokeWidth=1;html=1;shadow=0;comic=0;strokeColor=#000000;fontSize=17;fillColor=#FFFFFF;" parent="1" vertex="1">
                    <mxGeometry x="390" y="336" width="240" height="1" as="geometry"/>
                </mxCell>
                <mxCell id="cvKSAtzWg2OH9WG14mFE-162" value="&lt;b&gt;&lt;font color=&quot;#000000&quot;&gt;Mystic Skills&lt;/font&gt;&lt;/b&gt;" style="rounded=1;whiteSpace=wrap;html=1;fillColor=#CCCCCC;strokeColor=#000000;arcSize=0;" parent="1" vertex="1">
                    <mxGeometry x="370" y="158" width="280" height="30" as="geometry"/>
                </mxCell>
                <mxCell id="cvKSAtzWg2OH9WG14mFE-163" value="&lt;font style=&quot;font-size: 14px;&quot; color=&quot;#000000&quot;&gt;1&lt;/font&gt;" style="shape=partialRectangle;whiteSpace=wrap;html=1;bottom=1;right=1;left=1;top=0;fillColor=#FFFFFF;routingCenterX=-0.5;shadow=0;comic=0;strokeColor=#000000;fontSize=17;" parent="1" vertex="1">
                    <mxGeometry x="80" y="489.5" width="280" height="30" as="geometry"/>
                </mxCell>
                <mxCell id="cvKSAtzWg2OH9WG14mFE-164" value="&lt;font size=&quot;1&quot; style=&quot;&quot; color=&quot;#000000&quot;&gt;&lt;b style=&quot;font-size: 12px;&quot;&gt;Strength&lt;/b&gt;&lt;/font&gt;" style="shape=partialRectangle;whiteSpace=wrap;html=1;bottom=1;right=1;left=1;top=0;fillColor=#FFFFFF;routingCenterX=-0.5;shadow=0;comic=0;strokeColor=#000000;fontSize=17;direction=west;" parent="1" vertex="1">
                    <mxGeometry x="80" y="460.5" width="280" height="30" as="geometry"/>
                </mxCell>
                <mxCell id="cvKSAtzWg2OH9WG14mFE-165" value="" style="line;strokeWidth=1;html=1;shadow=0;comic=0;strokeColor=#000000;fontSize=17;fillColor=#FFFFFF;" parent="1" vertex="1">
                    <mxGeometry x="130" y="490.5" width="190" height="1" as="geometry"/>
                </mxCell>
                <mxCell id="cvKSAtzWg2OH9WG14mFE-166" value="&lt;font style=&quot;font-size: 14px;&quot; color=&quot;#000000&quot;&gt;1&lt;/font&gt;" style="shape=partialRectangle;whiteSpace=wrap;html=1;bottom=1;right=1;left=1;top=0;fillColor=#FFFFFF;routingCenterX=-0.5;shadow=0;comic=0;strokeColor=#000000;fontSize=17;" parent="1" vertex="1">
                    <mxGeometry x="80" y="548.5" width="280" height="30" as="geometry"/>
                </mxCell>
                <mxCell id="cvKSAtzWg2OH9WG14mFE-167" value="&lt;font size=&quot;1&quot; style=&quot;&quot; color=&quot;#000000&quot;&gt;&lt;b style=&quot;font-size: 12px;&quot;&gt;Dexterity&lt;/b&gt;&lt;/font&gt;" style="shape=partialRectangle;whiteSpace=wrap;html=1;bottom=1;right=1;left=1;top=0;fillColor=#FFFFFF;routingCenterX=-0.5;shadow=0;comic=0;strokeColor=#000000;fontSize=17;direction=west;" parent="1" vertex="1">
                    <mxGeometry x="80" y="519.5" width="280" height="30" as="geometry"/>
                </mxCell>
                <mxCell id="cvKSAtzWg2OH9WG14mFE-168" value="" style="line;strokeWidth=1;html=1;shadow=0;comic=0;strokeColor=#000000;fontSize=17;fillColor=#FFFFFF;" parent="1" vertex="1">
                    <mxGeometry x="130" y="549.5" width="190" height="1" as="geometry"/>
                </mxCell>
                <mxCell id="cvKSAtzWg2OH9WG14mFE-174" value="&lt;font style=&quot;font-size: 14px;&quot; color=&quot;#000000&quot;&gt;Locked&lt;/font&gt;" style="shape=partialRectangle;whiteSpace=wrap;html=1;bottom=1;right=1;left=1;top=0;fillColor=#FFFFFF;routingCenterX=-0.5;shadow=0;comic=0;strokeColor=#000000;fontSize=17;" parent="1" vertex="1">
                    <mxGeometry x="80" y="607.5" width="280" height="30" as="geometry"/>
                </mxCell>
                <mxCell id="cvKSAtzWg2OH9WG14mFE-175" value="&lt;font size=&quot;1&quot; style=&quot;&quot; color=&quot;#000000&quot;&gt;&lt;b style=&quot;font-size: 12px;&quot;&gt;Aura&lt;/b&gt;&lt;/font&gt;" style="shape=partialRectangle;whiteSpace=wrap;html=1;bottom=1;right=1;left=1;top=0;fillColor=#FFFFFF;routingCenterX=-0.5;shadow=0;comic=0;strokeColor=#000000;fontSize=17;direction=west;" parent="1" vertex="1">
                    <mxGeometry x="80" y="578.5" width="280" height="30" as="geometry"/>
                </mxCell>
                <mxCell id="cvKSAtzWg2OH9WG14mFE-176" value="" style="line;strokeWidth=1;html=1;shadow=0;comic=0;strokeColor=#000000;fontSize=17;fillColor=#FFFFFF;" parent="1" vertex="1">
                    <mxGeometry x="130" y="608.5" width="190" height="1" as="geometry"/>
                </mxCell>
                <mxCell id="cvKSAtzWg2OH9WG14mFE-180" value="&lt;font style=&quot;font-size: 14px;&quot; color=&quot;#000000&quot;&gt;5&lt;/font&gt;" style="shape=partialRectangle;whiteSpace=wrap;html=1;bottom=1;right=1;left=1;top=0;fillColor=#FFFFFF;routingCenterX=-0.5;shadow=0;comic=0;strokeColor=#000000;fontSize=17;" parent="1" vertex="1">
                    <mxGeometry x="360" y="489.5" width="280" height="30" as="geometry"/>
                </mxCell>
                <mxCell id="cvKSAtzWg2OH9WG14mFE-181" value="&lt;font size=&quot;1&quot; style=&quot;&quot; color=&quot;#000000&quot;&gt;&lt;b style=&quot;font-size: 12px;&quot;&gt;Perception&lt;/b&gt;&lt;/font&gt;" style="shape=partialRectangle;whiteSpace=wrap;html=1;bottom=1;right=1;left=1;top=0;fillColor=#FFFFFF;routingCenterX=-0.5;shadow=0;comic=0;strokeColor=#000000;fontSize=17;direction=west;gradientColor=none;gradientDirection=west;" parent="1" vertex="1">
                    <mxGeometry x="360" y="460.5" width="280" height="30" as="geometry"/>
                </mxCell>
                <mxCell id="cvKSAtzWg2OH9WG14mFE-182" value="" style="line;strokeWidth=1;html=1;shadow=0;comic=0;strokeColor=#000000;fontSize=17;fillColor=#FFFFFF;" parent="1" vertex="1">
                    <mxGeometry x="410" y="490.5" width="190" height="1" as="geometry"/>
                </mxCell>
                <mxCell id="cvKSAtzWg2OH9WG14mFE-183" value="&lt;font style=&quot;font-size: 14px;&quot; color=&quot;#000000&quot;&gt;22&lt;/font&gt;" style="shape=partialRectangle;whiteSpace=wrap;html=1;bottom=1;right=1;left=1;top=0;fillColor=#FFFFFF;routingCenterX=-0.5;shadow=0;comic=0;strokeColor=#000000;fontSize=17;" parent="1" vertex="1">
                    <mxGeometry x="360" y="548.5" width="280" height="30" as="geometry"/>
                </mxCell>
                <mxCell id="cvKSAtzWg2OH9WG14mFE-184" value="&lt;font size=&quot;1&quot; style=&quot;&quot; color=&quot;#000000&quot;&gt;&lt;b style=&quot;font-size: 12px;&quot;&gt;Intelligence&lt;/b&gt;&lt;/font&gt;" style="shape=partialRectangle;whiteSpace=wrap;html=1;bottom=1;right=1;left=1;top=0;fillColor=#FFFFFF;routingCenterX=-0.5;shadow=0;comic=0;strokeColor=#000000;fontSize=17;direction=west;" parent="1" vertex="1">
                    <mxGeometry x="360" y="519.5" width="280" height="30" as="geometry"/>
                </mxCell>
                <mxCell id="cvKSAtzWg2OH9WG14mFE-185" value="" style="line;strokeWidth=1;html=1;shadow=0;comic=0;strokeColor=#000000;fontSize=17;fillColor=#FFFFFF;" parent="1" vertex="1">
                    <mxGeometry x="410" y="549.5" width="190" height="1" as="geometry"/>
                </mxCell>
                <mxCell id="cvKSAtzWg2OH9WG14mFE-186" value="&lt;font style=&quot;font-size: 14px;&quot; color=&quot;#000000&quot;&gt;Locked&lt;/font&gt;" style="shape=partialRectangle;whiteSpace=wrap;html=1;bottom=1;right=1;left=1;top=0;fillColor=#FFFFFF;routingCenterX=-0.5;shadow=0;comic=0;strokeColor=#000000;fontSize=17;" parent="1" vertex="1">
                    <mxGeometry x="360" y="607.5" width="280" height="30" as="geometry"/>
                </mxCell>
                <mxCell id="cvKSAtzWg2OH9WG14mFE-187" value="&lt;font size=&quot;1&quot; style=&quot;&quot; color=&quot;#000000&quot;&gt;&lt;b style=&quot;font-size: 12px;&quot;&gt;Essence&lt;/b&gt;&lt;/font&gt;" style="shape=partialRectangle;whiteSpace=wrap;html=1;bottom=1;right=1;left=1;top=0;fillColor=#FFFFFF;routingCenterX=-0.5;shadow=0;comic=0;strokeColor=#000000;fontSize=17;direction=west;" parent="1" vertex="1">
                    <mxGeometry x="360" y="578.5" width="280" height="30" as="geometry"/>
                </mxCell>
                <mxCell id="cvKSAtzWg2OH9WG14mFE-188" value="" style="line;strokeWidth=1;html=1;shadow=0;comic=0;strokeColor=#000000;fontSize=17;fillColor=#FFFFFF;" parent="1" vertex="1">
                    <mxGeometry x="410" y="608.5" width="190" height="1" as="geometry"/>
                </mxCell>
                <mxCell id="cvKSAtzWg2OH9WG14mFE-189" value="&lt;font style=&quot;font-size: 14px;&quot; color=&quot;#000000&quot;&gt;2&lt;/font&gt;" style="shape=partialRectangle;whiteSpace=wrap;html=1;bottom=1;right=1;left=1;top=0;fillColor=#FFFFFF;routingCenterX=-0.5;shadow=0;comic=0;strokeColor=#000000;fontSize=17;" parent="1" vertex="1">
                    <mxGeometry x="80" y="666.5" width="280" height="30" as="geometry"/>
                </mxCell>
                <mxCell id="cvKSAtzWg2OH9WG14mFE-190" value="&lt;font size=&quot;1&quot; style=&quot;&quot; color=&quot;#000000&quot;&gt;&lt;b style=&quot;font-size: 12px;&quot;&gt;Constitution&lt;/b&gt;&lt;/font&gt;" style="shape=partialRectangle;whiteSpace=wrap;html=1;bottom=1;right=1;left=1;top=0;fillColor=#FFFFFF;routingCenterX=-0.5;shadow=0;comic=0;strokeColor=#000000;fontSize=17;direction=west;" parent="1" vertex="1">
                    <mxGeometry x="80" y="637.5" width="280" height="30" as="geometry"/>
                </mxCell>
                <mxCell id="cvKSAtzWg2OH9WG14mFE-191" value="" style="line;strokeWidth=1;html=1;shadow=0;comic=0;strokeColor=#000000;fontSize=17;fillColor=#FFFFFF;" parent="1" vertex="1">
                    <mxGeometry x="130" y="667.5" width="190" height="1" as="geometry"/>
                </mxCell>
                <mxCell id="cvKSAtzWg2OH9WG14mFE-193" value="&lt;font style=&quot;font-size: 14px;&quot; color=&quot;#000000&quot;&gt;20&lt;/font&gt;" style="shape=partialRectangle;whiteSpace=wrap;html=1;bottom=1;right=1;left=1;top=0;fillColor=#FFFFFF;routingCenterX=-0.5;shadow=0;comic=0;strokeColor=#000000;fontSize=17;" parent="1" vertex="1">
                    <mxGeometry x="80" y="725.5" width="280" height="30" as="geometry"/>
                </mxCell>
                <mxCell id="cvKSAtzWg2OH9WG14mFE-194" value="&lt;font size=&quot;1&quot; style=&quot;&quot; color=&quot;#000000&quot;&gt;&lt;b style=&quot;font-size: 12px;&quot;&gt;Spirit&lt;/b&gt;&lt;/font&gt;" style="shape=partialRectangle;whiteSpace=wrap;html=1;bottom=1;right=1;left=1;top=0;fillColor=#FFFFFF;routingCenterX=-0.5;shadow=0;comic=0;strokeColor=#000000;fontSize=17;direction=west;" parent="1" vertex="1">
                    <mxGeometry x="80" y="696.5" width="280" height="30" as="geometry"/>
                </mxCell>
                <mxCell id="cvKSAtzWg2OH9WG14mFE-195" value="" style="line;strokeWidth=1;html=1;shadow=0;comic=0;strokeColor=#000000;fontSize=17;fillColor=#FFFFFF;" parent="1" vertex="1">
                    <mxGeometry x="130" y="726.5" width="190" height="1" as="geometry"/>
                </mxCell>
                <mxCell id="cvKSAtzWg2OH9WG14mFE-196" value="&lt;font style=&quot;font-size: 14px;&quot; color=&quot;#000000&quot;&gt;Locked&lt;/font&gt;" style="shape=partialRectangle;whiteSpace=wrap;html=1;bottom=1;right=1;left=1;top=0;fillColor=#FFFFFF;routingCenterX=-0.5;shadow=0;comic=0;strokeColor=#000000;fontSize=17;" parent="1" vertex="1">
                    <mxGeometry x="80" y="784.5" width="280" height="30" as="geometry"/>
                </mxCell>
                <mxCell id="cvKSAtzWg2OH9WG14mFE-197" value="&lt;font size=&quot;1&quot; style=&quot;&quot; color=&quot;#000000&quot;&gt;&lt;b style=&quot;font-size: 12px;&quot;&gt;Defense&lt;/b&gt;&lt;/font&gt;" style="shape=partialRectangle;whiteSpace=wrap;html=1;bottom=1;right=1;left=1;top=0;fillColor=#FFFFFF;routingCenterX=-0.5;shadow=0;comic=0;strokeColor=#000000;fontSize=17;direction=west;" parent="1" vertex="1">
                    <mxGeometry x="80" y="755.5" width="280" height="30" as="geometry"/>
                </mxCell>
                <mxCell id="cvKSAtzWg2OH9WG14mFE-198" value="" style="line;strokeWidth=1;html=1;shadow=0;comic=0;strokeColor=#000000;fontSize=17;fillColor=#FFFFFF;" parent="1" vertex="1">
                    <mxGeometry x="130" y="785.5" width="190" height="1" as="geometry"/>
                </mxCell>
                <mxCell id="cvKSAtzWg2OH9WG14mFE-202" value="&lt;font style=&quot;font-size: 14px;&quot; color=&quot;#000000&quot;&gt;11&lt;/font&gt;" style="shape=partialRectangle;whiteSpace=wrap;html=1;bottom=1;right=1;left=1;top=0;fillColor=#FFFFFF;routingCenterX=-0.5;shadow=0;comic=0;strokeColor=#000000;fontSize=17;" parent="1" vertex="1">
                    <mxGeometry x="360" y="666.5" width="280" height="30" as="geometry"/>
                </mxCell>
                <mxCell id="cvKSAtzWg2OH9WG14mFE-203" value="&lt;font size=&quot;1&quot; style=&quot;&quot; color=&quot;#000000&quot;&gt;&lt;b style=&quot;font-size: 12px;&quot;&gt;Charisma&lt;/b&gt;&lt;/font&gt;" style="shape=partialRectangle;whiteSpace=wrap;html=1;bottom=1;right=1;left=1;top=0;fillColor=#FFFFFF;routingCenterX=-0.5;shadow=0;comic=0;strokeColor=#000000;fontSize=17;direction=west;" parent="1" vertex="1">
                    <mxGeometry x="360" y="637.5" width="280" height="30" as="geometry"/>
                </mxCell>
                <mxCell id="cvKSAtzWg2OH9WG14mFE-204" value="" style="line;strokeWidth=1;html=1;shadow=0;comic=0;strokeColor=#000000;fontSize=17;fillColor=#FFFFFF;" parent="1" vertex="1">
                    <mxGeometry x="410" y="667.5" width="190" height="1" as="geometry"/>
                </mxCell>
                <mxCell id="cvKSAtzWg2OH9WG14mFE-205" value="&lt;font style=&quot;font-size: 14px;&quot; color=&quot;#000000&quot;&gt;34&lt;/font&gt;" style="shape=partialRectangle;whiteSpace=wrap;html=1;bottom=1;right=1;left=1;top=0;fillColor=#FFFFFF;routingCenterX=-0.5;shadow=0;comic=0;strokeColor=#000000;fontSize=17;" parent="1" vertex="1">
                    <mxGeometry x="360" y="725.5" width="280" height="30" as="geometry"/>
                </mxCell>
                <mxCell id="cvKSAtzWg2OH9WG14mFE-206" value="&lt;font size=&quot;1&quot; style=&quot;&quot; color=&quot;#000000&quot;&gt;&lt;b style=&quot;font-size: 12px;&quot;&gt;Luck&lt;/b&gt;&lt;/font&gt;" style="shape=partialRectangle;whiteSpace=wrap;html=1;bottom=1;right=1;left=1;top=0;fillColor=#FFFFFF;routingCenterX=-0.5;shadow=0;comic=0;strokeColor=#000000;fontSize=17;direction=west;" parent="1" vertex="1">
                    <mxGeometry x="360" y="696.5" width="280" height="30" as="geometry"/>
                </mxCell>
                <mxCell id="cvKSAtzWg2OH9WG14mFE-207" value="" style="line;strokeWidth=1;html=1;shadow=0;comic=0;strokeColor=#000000;fontSize=17;fillColor=#FFFFFF;" parent="1" vertex="1">
                    <mxGeometry x="410" y="726.5" width="190" height="1" as="geometry"/>
                </mxCell>
                <mxCell id="cvKSAtzWg2OH9WG14mFE-211" value="&lt;font style=&quot;font-size: 14px;&quot; color=&quot;#000000&quot;&gt;Locked (6)&lt;/font&gt;" style="shape=partialRectangle;whiteSpace=wrap;html=1;bottom=1;right=1;left=1;top=0;fillColor=#FFFFFF;routingCenterX=-0.5;shadow=0;comic=0;strokeColor=#000000;fontSize=17;" parent="1" vertex="1">
                    <mxGeometry x="360" y="784.5" width="280" height="30" as="geometry"/>
                </mxCell>
                <mxCell id="cvKSAtzWg2OH9WG14mFE-212" value="&lt;font size=&quot;1&quot; style=&quot;&quot; color=&quot;#000000&quot;&gt;&lt;b style=&quot;font-size: 12px;&quot;&gt;Free Status Points&lt;/b&gt;&lt;/font&gt;" style="shape=partialRectangle;whiteSpace=wrap;html=1;bottom=1;right=1;left=1;top=0;fillColor=#FFFFFF;routingCenterX=-0.5;shadow=0;comic=0;strokeColor=#000000;fontSize=17;direction=west;" parent="1" vertex="1">
                    <mxGeometry x="360" y="755.5" width="280" height="30" as="geometry"/>
                </mxCell>
                <mxCell id="cvKSAtzWg2OH9WG14mFE-213" value="" style="line;strokeWidth=1;html=1;shadow=0;comic=0;strokeColor=#000000;fontSize=17;fillColor=#FFFFFF;" parent="1" vertex="1">
                    <mxGeometry x="410" y="785.5" width="190" height="1" as="geometry"/>
                </mxCell>
                <mxCell id="cvKSAtzWg2OH9WG14mFE-214" value="&lt;b&gt;Skills&lt;/b&gt;" style="rounded=1;whiteSpace=wrap;html=1;fillColor=#CCCCCC;strokeColor=#000000;fontColor=#000000;arcSize=0;" parent="1" vertex="1">
                    <mxGeometry x="80" y="840" width="560" height="30" as="geometry"/>
                </mxCell>
                <UserObject label="%Skill%&lt;hr&gt;%Level%" Skill="Meditation" Level="9" Experience="45" placeholders="1" id="20">
                    <mxCell style="shape=partialRectangle;whiteSpace=wrap;html=1;shadow=0;comic=0;pointerEvents=1;strokeColor=#000000;strokeWidth=1;fontFamily=Helvetica;fontSize=12;fillColor=#FFFFFF;fontColor=#000000;opacity=90;" vertex="1" parent="1">
                        <mxGeometry x="80" y="870" width="140" height="60" as="geometry"/>
                    </mxCell>
                </UserObject>
                <UserObject label="%Skill%&lt;hr&gt;%Level%" Skill="Logics" Level="13" Experience="91" placeholders="1" id="21">
                    <mxCell style="shape=partialRectangle;whiteSpace=wrap;html=1;shadow=0;comic=0;pointerEvents=1;strokeColor=#000000;strokeWidth=1;fontFamily=Helvetica;fontSize=12;fillColor=#FFFFFF;fontColor=#000000;opacity=90;" vertex="1" parent="1">
                        <mxGeometry x="220" y="870" width="140" height="60" as="geometry"/>
                    </mxCell>
                </UserObject>
                <UserObject label="%Skill%&lt;hr&gt;%Level%" Skill="Charm" Level="5" Experience="15" placeholders="1" id="22">
                    <mxCell style="shape=partialRectangle;whiteSpace=wrap;html=1;shadow=0;comic=0;pointerEvents=1;strokeColor=#000000;strokeWidth=1;fontFamily=Helvetica;fontSize=12;fillColor=#FFFFFF;fontColor=#000000;opacity=90;" vertex="1" parent="1">
                        <mxGeometry x="360" y="870" width="140" height="60" as="geometry"/>
                    </mxCell>
                </UserObject>
                <UserObject label="%Skill%&lt;hr&gt;%Level%" Skill="Physics" Level="14" Experience="105" placeholders="1" id="23">
                    <mxCell style="shape=partialRectangle;whiteSpace=wrap;html=1;shadow=0;comic=0;pointerEvents=1;strokeColor=#000000;strokeWidth=1;fontFamily=Helvetica;fontSize=12;fillColor=#FFFFFF;fontColor=#000000;opacity=90;" vertex="1" parent="1">
                        <mxGeometry x="500" y="870" width="140" height="60" as="geometry"/>
                    </mxCell>
                </UserObject>
                <UserObject label="%Skill%&lt;hr&gt;%Level%" Skill="Algorithmics" Level="18" Experience="171" placeholders="1" id="24">
                    <mxCell style="shape=partialRectangle;whiteSpace=wrap;html=1;shadow=0;comic=0;pointerEvents=1;strokeColor=#000000;strokeWidth=1;fontFamily=Helvetica;fontSize=12;fillColor=#FFFFFF;fontColor=#000000;opacity=90;" vertex="1" parent="1">
                        <mxGeometry x="80" y="930" width="140" height="60" as="geometry"/>
                    </mxCell>
                </UserObject>
                <UserObject label="%Skill%&lt;hr&gt;%Level%" Skill="Mathematics" Level="22" Experience="253" placeholders="1" id="25">
                    <mxCell style="shape=partialRectangle;whiteSpace=wrap;html=1;shadow=0;comic=0;pointerEvents=1;strokeColor=#000000;strokeWidth=1;fontFamily=Helvetica;fontSize=12;fillColor=#FFFFFF;fontColor=#000000;opacity=90;" vertex="1" parent="1">
                        <mxGeometry x="220" y="930" width="140" height="60" as="geometry"/>
                    </mxCell>
                </UserObject>
            </root>
        </mxGraphModel>
    </diagram>
</mxfile>